<?xml version="1.0" encoding="utf-8"?>
<!-- Generator: Adobe Illustrator 26.0.1, SVG Export Plug-In . SVG Version: 6.00 Build 0)  -->
<svg version="1.1" id="图层_1" xmlns="http://www.w3.org/2000/svg" xmlns:xlink="http://www.w3.org/1999/xlink" x="0px" y="0px"
	 viewBox="0 0 20 20" style="enable-background:new 0 0 20 20;" xml:space="preserve">
<path d="M0.2,10c0-5.4,4.4-9.8,9.8-9.8c5.4,0,9.8,4.4,9.8,9.8c0,5.4-4.4,9.8-9.9,9.8C4.6,19.8,0.2,15.4,0.2,10z M11.6,13
	c0.1,0.5,0.2,0.9,0.4,1.3c0.1,0.4,0.2,0.8,0.7,1c0.9,0.4,1.8,0.3,2.7-0.2c0.2-0.1,0.2-0.2,0.2-0.4c-0.9-3.2-1.9-6.3-2.8-9.5
	c-0.2-0.7-0.6-1-1.3-1.2C10.3,3.7,9.1,3.8,8,4.3C7.9,4.3,7.7,4.5,7.7,4.6C7.3,5.5,7,6.4,6.7,7.2C6,9.4,5.3,11.6,4.6,13.8
	c-0.3,0.9,0.1,1.5,1,1.7c0.6,0.1,1.2,0.1,1.8-0.1c0.2-0.1,0.3-0.2,0.4-0.4c0.1-0.6,0.3-1.2,0.5-1.8c0-0.1,0.2-0.2,0.3-0.2
	C9.6,13,10.6,13,11.6,13z M15.2,5.7c0.7,0,1.2-0.5,1.2-1.2c0-0.7-0.5-1.2-1.2-1.2c-0.7,0-1.2,0.5-1.2,1.2
	C14.1,5.2,14.6,5.7,15.2,5.7z M10.1,6.9c0,0-0.1,0-0.1,0C9.6,8,9.2,9.2,8.8,10.5c0.8,0,1.5,0,2.3,0C10.8,9.2,10.4,8,10.1,6.9z"/>
</svg>
