<?xml version="1.0" encoding="utf-8"?>
<!-- Generator: Adobe Illustrator 26.0.1, SVG Export Plug-In . SVG Version: 6.00 Build 0)  -->
<svg version="1.1" id="图层_1" xmlns="http://www.w3.org/2000/svg" xmlns:xlink="http://www.w3.org/1999/xlink" x="0px" y="0px"
	 viewBox="0 0 20 20" style="enable-background:new 0 0 20 20;" xml:space="preserve">
<style type="text/css">
	.st0{fill:#040000;}
</style>
<path class="st0" d="M10,0.4c-5.3,0-9.6,4.3-9.6,9.6c0,5.3,4.3,9.6,9.6,9.6s9.6-4.3,9.6-9.6C19.6,4.7,15.3,0.4,10,0.4z M10,19
	c-5,0-9-4-9-9s4-9,9-9s9,4,9,9S15,19,10,19z M16,5c0,0.6-0.5,1.1-1.1,1.1S13.8,5.6,13.8,5s0.5-1.1,1.1-1.1S16,4.3,16,5z M13.8,9.9
	c-0.2-0.9-0.5-1.7-0.7-2.5S12.6,6,12.4,5.4c-0.2-0.4-0.5-0.7-0.9-0.8c-0.5-0.2-1-0.2-1.5-0.2c-0.4,0-0.8,0.1-1.2,0.2
	C8.5,4.6,8.2,4.6,7.9,4.8C7.8,5,7.8,5.3,7.6,5.7C7.4,6.1,7.3,6.6,7.1,7C7,7.5,6.8,8.1,6.6,8.6C6.3,9.2,6.2,9.8,6,10.3l-0.5,1.5
	c-0.2,0.4-0.2,0.8-0.3,1.1L5,13.4C5,13.6,5,13.8,5,13.9c0,0.3,0.2,0.6,0.4,0.8C5.8,15,6.2,15,6.6,15C6.9,15,7,15,7.3,15
	c0.2-0.1,0.3-0.1,0.5-0.2c0.2-0.3,0.2-0.7,0.3-1c0.2-0.3,0.2-0.7,0.3-1h3.2l0.3,1.2c0,0.2,0.1,0.3,0.2,0.5c0.1,0.2,0.2,0.3,0.3,0.4
	c0.2,0.2,0.3,0.2,0.5,0.2c0.2,0.1,0.5,0.1,0.7,0.1c0.3,0,0.6-0.1,1-0.2c0.2-0.1,0.5-0.2,0.6-0.4c-0.2-0.6-0.4-1.4-0.6-2.2
	C14.3,11.6,14.1,10.8,13.8,9.9z M8.9,10.5C9,9.8,9.2,9.2,9.4,8.6C9.7,8.1,9.8,7.5,10,7h0.1c0.2,0.5,0.3,1,0.5,1.6
	c0.2,0.6,0.3,1.2,0.5,1.8H8.9z"/>
</svg>
