<svg xmlns="http://www.w3.org/2000/svg" viewBox="0 0 20 20"><rect x="0" fill="none" width="20" height="20"/><path d="M.2 10C.2 4.6 4.6.2 10 .2s9.8 4.4 9.8 9.8-4.4 9.8-9.9 9.8C4.6 19.8.2 15.4.2 10zm11.4 3c.1.5.2.9.4 1.3.1.4.2.8.7 1 .9.4 1.8.3 2.7-.2.2-.1.2-.2.2-.4-.9-3.2-1.9-6.3-2.8-9.5-.2-.7-.6-1-1.3-1.2-1.2-.3-2.4-.2-3.5.3-.1 0-.3.2-.3.3-.4.9-.7 1.8-1 2.6l-2.1 6.6c-.3.9.1 1.5 1 1.7.6.1 1.2.1 1.8-.1.2-.1.3-.2.4-.4.1-.6.3-1.2.5-1.8 0-.1.2-.2.3-.2h3zm3.6-7.3c.7 0 1.2-.5 1.2-1.2s-.5-1.2-1.2-1.2-1.2.5-1.2 1.2c.1.7.6 1.2 1.2 1.2zm-5.1 1.2H10c-.4 1.1-.8 2.3-1.2 3.6h2.3c-.3-1.3-.7-2.5-1-3.6z"/></svg>