<svg id="图层_1" xmlns="http://www.w3.org/2000/svg" viewBox="0 0 20 20"><rect x="0" fill="none" width="20" height="20"/><style>.st0{fill:#040000;}</style><path class="st0" d="M10 .4C4.7.4.4 4.7.4 10s4.3 9.6 9.6 9.6 9.6-4.3 9.6-9.6S15.3.4 10 .4zM10 19c-5 0-9-4-9-9s4-9 9-9 9 4 9 9-4 9-9 9zm6-14c0 .6-.5 1.1-1.1 1.1s-1.1-.5-1.1-1.1.5-1.1 1.1-1.1S16 4.3 16 5zm-2.2 4.9c-.2-.9-.5-1.7-.7-2.5s-.5-1.4-.7-2c-.2-.4-.5-.7-.9-.8-.5-.2-1-.2-1.5-.2-.4 0-.8.1-1.2.2-.3 0-.6 0-.9.2-.1.2-.1.5-.3.9-.2.4-.3.9-.5 1.3-.1.5-.3 1.1-.5 1.6-.3.6-.4 1.2-.6 1.7l-.5 1.5c-.2.4-.2.8-.3 1.1l-.2.5v.5c0 .3.2.6.4.8.4.3.8.3 1.2.3h.7c.2-.1.3-.1.5-.2.2-.3.2-.7.3-1 .2-.3.2-.7.3-1h3.2l.3 1.2c0 .2.1.3.2.5s.2.3.3.4c.2.2.3.2.5.2.2.1.5.1.7.1.3 0 .6-.1 1-.2.2-.1.5-.2.6-.4-.2-.6-.4-1.4-.6-2.2-.3-.8-.5-1.6-.8-2.5zm-4.9.6c.1-.7.3-1.3.5-1.9.3-.5.4-1.1.6-1.6h.1c.2.5.3 1 .5 1.6.2.6.3 1.2.5 1.8H8.9z"/></svg>